<svg width="16" height="16" viewBox="0 0 16 16" fill="none" xmlns="http://www.w3.org/2000/svg">    <g clip-path="url(#clip0_6689_1676)">        <path d="M5.83325 11.7413V14.8333C5.83325 15.0493 5.97192 15.2407 6.17725 15.3087C6.22859 15.3253 6.28125 15.3333 6.33325 15.3333C6.48925 15.3333 6.63992 15.26 6.73592 15.1293L8.54459 12.668L5.83325 11.7413Z" fill="#384BFF"/>        <path d="M15.79 0.0927257C15.6367 -0.0159409 15.4354 -0.0306076 15.2687 0.0567257L0.268696 7.89006C0.091363 7.98273 -0.0133037 8.17206 0.00136299 8.37139C0.0166963 8.57139 0.149363 8.74206 0.33803 8.80673L4.50803 10.2321L13.3887 2.63873L6.5167 10.9181L13.5054 13.3067C13.5574 13.3241 13.612 13.3334 13.6667 13.3334C13.7574 13.3334 13.8474 13.3087 13.9267 13.2607C14.0534 13.1834 14.1394 13.0534 14.1614 12.9074L15.9947 0.574059C16.022 0.387392 15.9434 0.202059 15.79 0.0927257Z" fill="#384BFF"/>    </g>    <defs>        <clipPath id="clip0_6689_1676">            <rect width="16" height="16" fill="white"/>        </clipPath>    </defs></svg>